# xmcd
#
# Track frame offsets: 
#        150
#        22007
#        33747
#        41917
#        55947
#        72062
#        99435
#        112065
#        125457
#        135292
#        149780
#        160017
#        175325
#        181330
#        185867
#        201877
#
# Disc length: 3290 seconds
#
# Revision: 2
# Processed by: cddbd v1.5.2PL0 Copyright (c) Steve Scherf et al.
# Submitted via: ExactAudioCopyFreeDBPlugin 1.0
#
DISCID=f20cd810
DTITLE=Wretch Like Me - I Am Become Death
DYEAR=2002
DGENRE=Alt. Rock
TTITLE0=Eccentric Hundredaire
TTITLE1=Another Reason to Hate Easter
TTITLE2=Avatar
TTITLE3=Fat of the Van
TTITLE4=Saying Sorry to a Tombstone
TTITLE5=Would Be Elegy
TTITLE6=Safecracker
TTITLE7=The Greatest Love That Never Was
TTITLE8=Sucker Intro
TTITLE9=Always Sideways
TTITLE10=Niccoletta
TTITLE11=Mr. Head Say Hello to Mr. Brick Wall
TTITLE12=I Am the Goat
TTITLE13=Hold On
TTITLE14=Stars and Bars
TTITLE15=Trauma
EXTD=YEAR: 2002 ID3G:  17
EXTT0=
EXTT1=
EXTT2=
EXTT3=
EXTT4=
EXTT5=
EXTT6=
EXTT7=
EXTT8=
EXTT9=
EXTT10=
EXTT11=
EXTT12=
EXTT13=
EXTT14=
EXTT15=
PLAYORDER=
